<?xml version="1.0" encoding="UTF-8"?>
<!-- Generated by Pixelmator Pro 3.6.10 -->
<svg width="100" height="100" viewBox="0 0 100 100" xmlns="http://www.w3.org/2000/svg">
    <g id="f1731ad2-9460-4b9c-9783-2d256193a4e7">
        <linearGradient id="linearGradient1" x1="-7.783588" y1="9.113258" x2="83.871434" y2="51.852696" gradientUnits="userSpaceOnUse">
            <stop offset="1e-05" stop-color="#51a4fb" stop-opacity="1"/>
            <stop offset="1" stop-color="#51a4fb" stop-opacity="1"/>
        </linearGradient>
        <path id="Path" fill="url(#linearGradient1)" stroke="none" d="M 101.565063 59.514751 C 101.565369 60.502121 101.173271 61.449139 100.475082 62.147312 C 99.776909 62.84549 98.829895 63.237595 97.842522 63.237289 L 74.340302 63.237289 C 72.95282 63.23735 71.680298 62.466225 71.0382 61.236252 L 69.004204 57.342133 L 60.96143 79.644409 C 60.394032 81.213753 58.851849 82.213974 57.187553 82.092056 C 55.523247 81.970131 54.143291 80.755844 53.810654 79.120575 L 48.260933 51.728779 L 45.002007 59.469296 C 44.420292 60.849663 43.068291 61.747257 41.570362 61.747589 L 28.660786 61.747589 C 26.604568 61.747589 24.937677 60.0807 24.937677 58.024483 C 24.937677 55.968269 26.604568 54.301376 28.660786 54.301376 L 39.098896 54.301376 L 46.083771 37.713577 C 46.718697 36.209232 48.259373 35.293785 49.884201 35.455437 C 51.509026 35.617081 52.839142 36.818134 53.16523 38.418083 L 58.468372 64.607681 L 64.880547 46.831299 C 65.381744 45.441025 66.658112 44.479073 68.13266 44.380287 C 69.607071 44.277859 71.001793 45.059792 71.683617 46.371094 L 76.599274 55.791073 L 97.842522 55.791073 C 98.830086 55.790771 99.777283 56.183025 100.475494 56.881451 C 101.173706 57.579872 101.565659 58.527184 101.565063 59.514751 Z M 69.997337 65.568993 L 64.463524 80.910263 C 63.322796 84.054718 60.229195 86.056137 56.893452 85.807739 C 53.597027 85.566849 50.819893 83.119247 50.158562 79.860313 L 46.809872 63.321373 C 45.415257 64.700974 43.532055 65.473694 41.570362 65.471268 L 28.660786 65.471268 C 24.549284 65.467514 21.217194 62.135418 21.213432 58.023914 C 21.217194 53.912418 24.549284 50.580322 28.660786 50.576565 L 36.625156 50.576565 L 42.65099 36.267059 C 43.916222 33.250053 47.004925 31.414635 50.259697 31.745697 C 53.514297 32.0597 56.178219 34.470116 56.815048 37.677216 L 59.477413 50.8311 L 61.378452 45.566589 C 62.440113 42.617634 65.235909 40.650169 68.370148 40.646385 C 71.150856 40.638206 73.703629 42.182667 74.986862 44.64959 L 78.857117 52.065125 L 91.375801 52.065125 C 91.42012 52.010582 91.466705 51.957176 91.508751 51.903767 L 91.668976 51.706051 L 91.654198 51.706051 C 95.664429 46.716633 97.847992 40.505936 97.842522 34.104668 C 97.842522 18.525909 85.212479 5.897003 69.631447 5.897003 C 61.550037 5.897003 54.282223 9.3116 49.139297 14.755646 C 43.99865 9.3116 36.727425 5.897003 28.646013 5.897003 C 13.067254 5.898132 0.434936 18.527046 0.434936 34.106941 C 0.434936 40.62252 2.663234 46.598354 6.369864 51.374249 L 6.343729 51.374249 L 6.628942 51.712872 C 6.800525 51.934448 6.97438 52.148075 7.159597 52.357159 L 38.689827 90.589317 C 41.120384 93.811882 44.969055 95.897003 49.318836 95.897003 C 53.661797 95.897003 57.515015 93.811882 59.947845 90.589317 L 79.219597 66.960968 L 74.340302 66.960968 C 72.782486 66.963928 71.263184 66.476974 69.997337 65.568993 Z"/>
    </g>
</svg>
